# xmcd CD Database Entry
#
# Track frame offsets:
# 150
# 3824
# 22763
# 41034
# 46882
# 64258
# 83611
# 100619
# 105631
# 121455
# 138972
# 161452
# 181248
# 202245
# 228290
# 245974
# 259912
#
# Disc length: 3676 seconds
#
# Revision: 2
# Processed by: cddbd v1.5PL3 Copyright (c) Steve Scherf et al.
# Submitted via: tcd 2.0b
#
DISCID=da0e5a11
DTITLE=Usher - Confessions
DYEAR=1900
DGENRE=
TTITLE0=Intro
TTITLE1=Yeah ( f. Lil Jon and Ludacris)
TTITLE2=Throwback
TTITLE3=Confessions
TTITLE4=Confessions Part II
TTITLE5=Burn
TTITLE6=Caught Up
TTITLE7=Superstar Interlude
TTITLE8=Superstar
TTITLE9=Truth Hurts
TTITLE10=Simple Things
TTITLE11=Bad Girl
TTITLE12=That's What It's Made For
TTITLE13=Can U Handle It?
TTITLE14=Do It To Me
TTITLE15=Take Your Hand
TTITLE16=Follow Me
EXTD=
EXTT0=
EXTT1=
EXTT2=
EXTT3=
EXTT4=
EXTT5=
EXTT6=
EXTT7=
EXTT8=
EXTT9=
EXTT10=
EXTT11=
EXTT12=
EXTT13=
EXTT14=
EXTT15=
EXTT16=
PLAYORDER=
